<svg width="25" height="25" viewBox="0 0 26 25" fill="none" xmlns="http://www.w3.org/2000/svg">
<path d="M19.0168 16.4659C19.8224 16.0706 20.7445 15.8455 21.7265 15.8455H21.7299C21.8297 15.8455 21.8763 15.736 21.8031 15.6752C20.7818 14.8378 19.6152 14.1615 18.3511 13.674C18.3377 13.6679 18.3244 13.6648 18.3111 13.6588C20.3783 12.2871 21.7232 10.0578 21.7232 7.54258C21.7232 3.37591 18.0348 0 13.4842 0C8.93364 0 5.24857 3.37591 5.24857 7.54258C5.24857 10.0578 6.59343 12.2871 8.664 13.6588C8.65068 13.6648 8.63737 13.6679 8.62405 13.674C7.13604 14.2488 5.80116 15.073 4.6527 16.1253C3.51086 17.1666 2.60182 18.4011 1.97627 19.7597C1.36081 21.0902 1.02864 22.5157 0.997581 23.9599C0.996692 23.9923 1.00292 24.0246 1.01591 24.0548C1.02889 24.0851 1.04837 24.1126 1.07319 24.1358C1.09801 24.1591 1.12766 24.1776 1.16042 24.1902C1.19317 24.2028 1.22835 24.2093 1.26389 24.2092H3.25789C3.40103 24.2092 3.52087 24.1028 3.5242 23.972C3.59078 21.6241 4.61941 19.4252 6.44031 17.7585C8.32113 16.0341 10.8244 15.0852 13.4876 15.0852C15.375 15.0852 17.1859 15.5627 18.7472 16.4568C18.7873 16.4798 18.8333 16.4928 18.8807 16.4944C18.928 16.496 18.975 16.4862 19.0168 16.4659ZM13.4876 12.7737C11.9629 12.7737 10.5282 12.2293 9.44629 11.2409C8.91398 10.7558 8.49199 10.1793 8.20461 9.54458C7.91724 8.90986 7.77016 8.22946 7.77186 7.54258C7.77186 6.14659 8.36773 4.83272 9.44629 3.84428C10.5248 2.85584 11.9596 2.31144 13.4876 2.31144C15.0155 2.31144 16.4469 2.85584 17.5288 3.84428C18.0611 4.32935 18.4831 4.90585 18.7705 5.54058C19.0579 6.1753 19.2049 6.8557 19.2032 7.54258C19.2032 8.93856 18.6074 10.2524 17.5288 11.2409C16.4469 12.2293 15.0122 12.7737 13.4876 12.7737ZM25.7312 20.0122H22.9349V17.4574C22.9349 17.3236 22.8151 17.2141 22.6686 17.2141H20.8044C20.658 17.2141 20.5381 17.3236 20.5381 17.4574V20.0122H17.7419C17.5954 20.0122 17.4756 20.1217 17.4756 20.2555V21.9586C17.4756 22.0925 17.5954 22.2019 17.7419 22.2019H20.5381V24.7567C20.5381 24.8905 20.658 25 20.8044 25H22.6686C22.8151 25 22.9349 24.8905 22.9349 24.7567V22.2019H25.7312C25.8777 22.2019 25.9975 22.0925 25.9975 21.9586V20.2555C25.9975 20.1217 25.8777 20.0122 25.7312 20.0122Z" fill="#6700EE"/>
</svg>
