<svg width="25" height="35" viewBox="0 0 40 48" fill="none" xmlns="http://www.w3.org/2000/svg">
<path d="M38.3333 8.64H31.6667V3.84C31.6667 1.722 30.1719 0 28.3333 0H11.6667C9.82812 0 8.33333 1.722 8.33333 3.84V8.64H1.66667C0.744792 8.64 0 9.498 0 10.56V12.48C0 12.744 0.1875 12.96 0.416667 12.96H3.5625L4.84896 44.34C4.93229 46.386 6.40104 48 8.17708 48H31.8229C33.6042 48 35.0677 46.392 35.151 44.34L36.4375 12.96H39.5833C39.8125 12.96 40 12.744 40 12.48V10.56C40 9.498 39.2552 8.64 38.3333 8.64ZM27.9167 8.64H12.0833V4.32H27.9167V8.64Z" fill="#fe0000"/>
</svg>
