<svg width="25" height="25" viewBox="0 0 39 39" fill="none" xmlns="http://www.w3.org/2000/svg">
<path d="M27.682 6.95735L32.0427 11.3159M30.4862 3.1176L18.6952 14.9086C18.0859 15.517 17.6704 16.2921 17.5011 17.1363L16.4119 22.5881L21.8637 21.4969C22.7079 21.3281 23.482 20.9143 24.0914 20.3048L35.8824 8.51383C36.2367 8.15951 36.5178 7.73887 36.7095 7.27593C36.9013 6.81298 37 6.3168 37 5.81572C37 5.31463 36.9013 4.81845 36.7095 4.3555C36.5178 3.89256 36.2367 3.47192 35.8824 3.1176C35.5281 2.76328 35.1074 2.48221 34.6445 2.29045C34.1816 2.0987 33.6854 2 33.1843 2C32.6832 2 32.187 2.0987 31.7241 2.29045C31.2611 2.48221 30.8405 2.76328 30.4862 3.1176V3.1176Z" stroke="#6E00FF" stroke-width="4" stroke-linecap="round" stroke-linejoin="round"/>
<path d="M32.8826 26.7058V32.8823C32.8826 33.9744 32.4488 35.0217 31.6766 35.794C30.9044 36.5662 29.857 37 28.765 37H6.11769C5.02561 37 3.97826 36.5662 3.20604 35.794C2.43383 35.0217 2 33.9744 2 32.8823V10.235C2 9.14292 2.43383 8.09557 3.20604 7.32335C3.97826 6.55114 5.02561 6.11731 6.11769 6.11731H12.2942" stroke="#6700EE" stroke-width="4" stroke-linecap="round" stroke-linejoin="round"/>
</svg>
