<svg width="25" height="25" viewBox="0 0 55 55" fill="none" xmlns="http://www.w3.org/2000/svg">
<path d="M54.2871 28.391L29.5399 0.871006C28.4978 -0.290335 26.496 -0.290335 25.4539 0.871006L0.706626 28.391C0.350421 28.7861 0.11661 29.2764 0.0336234 29.8021C-0.0493635 30.3278 0.0220491 30.8663 0.239178 31.3521C0.679129 32.3456 1.66352 32.984 2.74965 32.984H8.24903V52.248C8.24903 52.9779 8.53873 53.6779 9.0544 54.194C9.57007 54.7101 10.2695 55 10.9987 55H19.2478C19.9771 55 20.6765 54.7101 21.1921 54.194C21.7078 53.6779 21.9975 52.9779 21.9975 52.248V41.24H32.9963V52.248C32.9963 52.9779 33.286 53.6779 33.8016 54.194C34.3173 54.7101 35.0167 55 35.746 55H43.995C44.7243 55 45.4237 54.7101 45.9394 54.194C46.455 53.6779 46.7447 52.9779 46.7447 52.248V32.984H52.2441C52.7766 32.9863 53.2983 32.8335 53.7455 32.5441C54.1928 32.2548 54.5462 31.8415 54.7628 31.3546C54.9794 30.8677 55.0497 30.3282 54.9653 29.802C54.8808 29.2757 54.6452 28.7855 54.2871 28.391V28.391Z" fill="white"/>
</svg>
