<svg width="35" height="35" viewBox="0 0 32 32" fill="none" xmlns="http://www.w3.org/2000/svg">
<path opacity="0.7" d="M14.4 1.6001C16.2911 1.6001 18.1636 1.97256 19.9107 2.69623C21.6578 3.4199 23.2452 4.4806 24.5824 5.81776C25.9195 7.15492 26.9802 8.74237 27.7039 10.4895C28.4276 12.2365 28.8 14.1091 28.8 16.0001C28.8 17.8911 28.4276 19.7637 27.7039 21.5107C26.9802 23.2578 25.9195 24.8453 24.5824 26.1824C23.2452 27.5196 21.6578 28.5803 19.9107 29.304C18.1636 30.0276 16.2911 30.4001 14.4 30.4001L14.4 1.6001Z" fill="#8FA7FD"/>
<circle opacity="0.7" cx="14.4" cy="15.9999" r="10.4" transform="rotate(-90 14.4 15.9999)" fill="#00E8FF"/>
</svg>
