<svg width="25" height="25" viewBox="0 0 55 55" fill="none" xmlns="http://www.w3.org/2000/svg">
<path fill-rule="evenodd" clip-rule="evenodd" d="M27.5 52.2499C41.1689 52.2499 52.25 41.1688 52.25 27.4999C52.25 13.8311 41.1689 2.74999 27.5 2.74999C13.8311 2.74999 2.75 13.8311 2.75 27.4999C2.75 41.1688 13.8311 52.2499 27.5 52.2499ZM27.5 54.9999C42.6882 54.9999 55 42.6881 55 27.4999C55 12.3117 42.6882 0 27.5 0C12.3118 0 0 12.3117 0 27.4999C0 42.6881 12.3118 54.9999 27.5 54.9999Z" fill="white"/>
<path d="M11 43.4912C11 42.0708 12.0615 40.8704 13.475 40.7137C24.0831 39.5394 30.965 39.6453 41.5497 40.7398C42.0783 40.7953 42.5793 41.0035 42.9914 41.3391C43.4036 41.6746 43.7091 42.1229 43.8707 42.6292C44.0323 43.1355 44.0429 43.6779 43.9013 44.1902C43.7597 44.7024 43.472 45.1624 43.0732 45.5138C30.5814 56.4024 23.4424 56.2525 11.88 45.5248C11.3163 45.0023 11 44.2598 11 43.4925V43.4912Z" fill="white"/>
<path fill-rule="evenodd" clip-rule="evenodd" d="M41.4081 42.1066C30.9073 41.0203 24.1244 40.9186 13.6249 42.0804C13.2793 42.1207 12.9606 42.287 12.73 42.5476C12.4994 42.8081 12.373 43.1446 12.375 43.4926C12.375 43.8858 12.5386 44.2584 12.815 44.5169C18.546 49.8327 22.8883 52.2348 27.1329 52.2499C31.3926 52.265 35.9686 49.8822 42.1699 44.4784C42.3669 44.3031 42.5087 44.0743 42.5781 43.8198C42.6475 43.5654 42.6415 43.2963 42.5608 43.0452C42.4801 42.7941 42.3282 42.5718 42.1236 42.4054C41.919 42.2391 41.6704 42.1357 41.4081 42.1079V42.1066ZM13.3238 39.3469C24.0433 38.1603 31.0255 38.2676 41.6928 39.3717C42.4879 39.4547 43.2416 39.7677 43.8616 40.2725C44.4816 40.7773 44.941 41.4518 45.1835 42.2136C45.426 42.9755 45.4411 43.7915 45.227 44.5617C45.0129 45.332 44.5789 46.0232 43.978 46.5505C37.6874 52.034 32.4486 55.0205 27.1246 54.9999C21.7855 54.9806 16.7778 51.9433 10.9464 46.5327C10.5289 46.1438 10.196 45.673 9.96868 45.1497C9.74132 44.6263 9.62433 44.0618 9.62501 43.4912C9.623 42.466 9.99929 41.4762 10.6818 40.7112C11.3643 39.9463 12.305 39.46 13.3238 39.3456V39.3469Z" fill="white"/>
<path d="M38.5 22C38.5 24.9173 37.3411 27.7152 35.2782 29.7781C33.2153 31.841 30.4174 32.9999 27.5 32.9999C24.5826 32.9999 21.7847 31.841 19.7218 29.7781C17.6589 27.7152 16.5 24.9173 16.5 22C16.5 19.0826 17.6589 16.2847 19.7218 14.2218C21.7847 12.1589 24.5826 11 27.5 11C30.4174 11 33.2153 12.1589 35.2782 14.2218C37.3411 16.2847 38.5 19.0826 38.5 22Z" fill="white"/>
<path fill-rule="evenodd" clip-rule="evenodd" d="M27.5 30.25C29.688 30.25 31.7865 29.3808 33.3336 27.8336C34.8808 26.2864 35.75 24.188 35.75 22C35.75 19.8119 34.8808 17.7135 33.3336 16.1664C31.7865 14.6192 29.688 13.75 27.5 13.75C25.312 13.75 23.2135 14.6192 21.6664 16.1664C20.1192 17.7135 19.25 19.8119 19.25 22C19.25 24.188 20.1192 26.2864 21.6664 27.8336C23.2135 29.3808 25.312 30.25 27.5 30.25ZM27.5 32.9999C30.4174 32.9999 33.2153 31.841 35.2782 29.7781C37.3411 27.7152 38.5 24.9173 38.5 22C38.5 19.0826 37.3411 16.2847 35.2782 14.2218C33.2153 12.1589 30.4174 11 27.5 11C24.5826 11 21.7847 12.1589 19.7218 14.2218C17.6589 16.2847 16.5 19.0826 16.5 22C16.5 24.9173 17.6589 27.7152 19.7218 29.7781C21.7847 31.841 24.5826 32.9999 27.5 32.9999Z" fill="white"/>
</svg>