<svg width="25" height="25" viewBox="0 0 35 35" fill="none" xmlns="http://www.w3.org/2000/svg">
<path d="M17.5065 1.64432e-05C14.2357 -0.00447103 11.0292 0.909627 8.25147 2.63841C5.47376 4.3672 3.23626 6.84133 1.79327 9.7796C0.350287 12.7179 -0.240299 16.0024 0.0886409 19.2599C0.41758 22.5174 1.65285 25.6172 3.65405 28.207C5.65525 30.7968 8.34212 32.7727 11.4092 33.9101C14.4764 35.0475 17.8008 35.3008 21.0045 34.6412C24.2083 33.9816 27.163 32.4356 29.5328 30.1788C31.9025 27.9221 33.5923 25.0452 34.41 21.875H29.8623C29.0609 24.1439 27.6518 26.1485 25.789 27.6698C23.9262 29.1911 21.6815 30.1704 19.3001 30.5008C16.9188 30.8311 14.4926 30.4997 12.2867 29.5428C10.0808 28.586 8.18019 27.0404 6.79265 25.0752C5.40511 23.11 4.58405 20.8007 4.41922 18.3999C4.2544 15.999 4.75216 13.599 5.85809 11.4623C6.96402 9.32553 8.63554 7.53426 10.6899 6.28432C12.7443 5.03438 15.1024 4.37387 17.5065 4.37502C19.2261 4.37753 20.9279 4.72317 22.5125 5.39174C24.0971 6.0603 25.5326 7.03838 26.7351 8.26877L19.7028 15.3125H35V1.64432e-05L29.8623 5.14064C28.2434 3.51026 26.3182 2.21666 24.1976 1.33439C22.077 0.452121 19.803 -0.00138021 17.5065 1.64432e-05V1.64432e-05Z" fill="#6700EE"/>
</svg>

