<svg width="25" height="35" viewBox="0 0 35 35" fill="none" xmlns="http://www.w3.org/2000/svg">
<path d="M0 4.8125C0 3.53615 0.50703 2.31207 1.40955 1.40955C2.31207 0.50703 3.53615 1.74843e-07 4.8125 1.74843e-07H22.2495C22.9967 -0.000185084 23.7366 0.146852 24.4269 0.432711C25.1172 0.71857 25.7444 1.13765 26.2728 1.666L29.834 5.22725C30.9015 6.29475 31.5 7.742 31.5 9.2505V15.7885C30.6819 15.264 29.7996 14.847 28.875 14.5477V9.25225C28.875 8.4385 28.553 7.65975 27.9772 7.08575L24.416 3.5245C23.9639 3.07163 23.3813 2.77176 22.75 2.667V7.4375C22.75 7.95458 22.6482 8.4666 22.4503 8.94432C22.2524 9.42203 21.9624 9.8561 21.5967 10.2217C21.2311 10.5874 20.797 10.8774 20.3193 11.0753C19.8416 11.2732 19.3296 11.375 18.8125 11.375H10.9375C9.89321 11.375 8.89169 10.9602 8.15327 10.2217C7.41484 9.48331 7 8.48179 7 7.4375V2.625H4.8125C3.605 2.625 2.625 3.605 2.625 4.8125V26.6875C2.625 27.895 3.605 28.875 4.8125 28.875H5.25V19.6875C5.25 18.6432 5.66484 17.6417 6.40327 16.9033C7.14169 16.1648 8.14321 15.75 9.1875 15.75H19.3095C18.1987 16.4518 17.2172 17.3398 16.408 18.375H9.1875C8.8394 18.375 8.50556 18.5133 8.25942 18.7594C8.01328 19.0056 7.875 19.3394 7.875 19.6875V28.875H14.5477C14.8505 29.8095 15.2688 30.6898 15.7885 31.5H4.8125C3.53615 31.5 2.31207 30.993 1.40955 30.0905C0.50703 29.1879 0 27.9639 0 26.6875V4.8125ZM9.625 2.625V7.4375C9.625 8.162 10.213 8.75 10.9375 8.75H18.8125C19.1606 8.75 19.4944 8.61172 19.7406 8.36558C19.9867 8.11944 20.125 7.7856 20.125 7.4375V2.625H9.625ZM35 25.375C35 27.9277 33.9859 30.3759 32.1809 32.1809C30.3759 33.9859 27.9277 35 25.375 35C22.8223 35 20.3741 33.9859 18.5691 32.1809C16.7641 30.3759 15.75 27.9277 15.75 25.375C15.75 22.8223 16.7641 20.3741 18.5691 18.5691C20.3741 16.7641 22.8223 15.75 25.375 15.75C27.9277 15.75 30.3759 16.7641 32.1809 18.5691C33.9859 20.3741 35 22.8223 35 25.375V25.375ZM20.125 24.5C19.8929 24.5 19.6704 24.5922 19.5063 24.7563C19.3422 24.9204 19.25 25.1429 19.25 25.375C19.25 25.6071 19.3422 25.8296 19.5063 25.9937C19.6704 26.1578 19.8929 26.25 20.125 26.25H28.5127L25.6305 29.1305C25.4662 29.2948 25.3739 29.5176 25.3739 29.75C25.3739 29.9824 25.4662 30.2052 25.6305 30.3695C25.7948 30.5338 26.0176 30.6261 26.25 30.6261C26.4824 30.6261 26.7052 30.5338 26.8695 30.3695L31.2445 25.9945C31.326 25.9132 31.3906 25.8167 31.4347 25.7104C31.4789 25.6041 31.5016 25.4901 31.5016 25.375C31.5016 25.2599 31.4789 25.1459 31.4347 25.0396C31.3906 24.9333 31.326 24.8368 31.2445 24.7555L26.8695 20.3805C26.7881 20.2991 26.6916 20.2346 26.5853 20.1906C26.479 20.1466 26.3651 20.1239 26.25 20.1239C26.0176 20.1239 25.7948 20.2162 25.6305 20.3805C25.4662 20.5448 25.3739 20.7676 25.3739 21C25.3739 21.2324 25.4662 21.4552 25.6305 21.6195L28.5127 24.5H20.125Z" fill="#6700EE"/>
</svg>
